# xmcd CD database file
#
# Track frame offsets:
#	183
#	50883
#	92508
#	123933
#
# Disc length: 2470 seconds
#
# Revision: 0
# Processed by: cddbd v1.5.1PL0 Copyright (c) Steve Scherf et al.
# Submitted via: CDex 1.51
#
DISCID=2e09a404
DTITLE=The Barry Altschul Quartet - For Stu
DYEAR=1981
DGENRE=Jazz
TTITLE0=For Stu
TTITLE1=Sleepwalker
TTITLE2=Drum Role
TTITLE3=Orange was the Color of Her Dress, Then Silk Blues
EXTD=YEAR: 1981
EXTT0=
EXTT1=
EXTT2=
EXTT3=
PLAYORDER=
